<svg id="Слой_2" data-name="Слой 2" xmlns="http://www.w3.org/2000/svg" xmlns:xlink="http://www.w3.org/1999/xlink" width="74" height="74" viewBox="0 0 74 74">
  <defs>
    <linearGradient id="linear-gradient" x1="-22.807" y1="10.947" x2="-22.773" y2="10.947" gradientUnits="objectBoundingBox">
      <stop offset="0" stop-color="#62bb46"/>
      <stop offset="1" stop-color="#d2de26"/>
    </linearGradient>
    <linearGradient id="linear-gradient-2" x1="-8.704" y1="5.588" x2="-8.69" y2="5.588" xlink:href="#linear-gradient"/>
  </defs>
  <g id="Слой_1" data-name="Слой 1">
    <path id="Контур_37" data-name="Контур 37" d="M51.81,21.3a2.06,2.06,0,0,0-1.91-1.92H45a2.06,2.06,0,0,0-1.91,1.92V32.8H31.47V21.3a1.94,1.94,0,0,0-1.84-1.92h-5a2.06,2.06,0,0,0-1.92,1.85V54.69a.23.23,0,0,0,.22.22h6.64A2.06,2.06,0,0,0,31.47,53V41.42H43v11.5a2.06,2.06,0,0,0,2,1.92h5a2.06,2.06,0,0,0,1.92-1.92V51.3C51.81,48,51.81,21.3,51.81,21.3Z" fill="url(#linear-gradient)"/>
    <path id="Контур_38" data-name="Контур 38" d="M37,0A37,37,0,1,0,74,37,37,37,0,0,0,37,0Zm.07,66a29,29,0,0,1-13.34-3.2H15.18a.31.31,0,0,1-.29-.3V55.72A28.63,28.63,0,0,1,8.11,37.07a29,29,0,1,1,29,29Z" fill="url(#linear-gradient-2)"/>
  </g>
</svg>
