<svg xmlns="http://www.w3.org/2000/svg" viewBox="0 0 496 496"><defs><style>.cls-1{fill:#3e3e3b;}</style></defs><g id="Слой_2" data-name="Слой 2"><g id="Layer_5" data-name="Layer 5"><path class="cls-1" d="M376,256A119.25,119.25,0,0,0,320,270V226.06A120,120,0,1,0,268.78,66.42L187.18,6.3c-11-8.13-27.32-8.14-38.36,0L0,116v44H16V316.38A119.93,119.93,0,1,0,237.58,352h20.84A120,120,0,1,0,376,256Zm0-240A104,104,0,1,1,272,120,104.13,104.13,0,0,1,376,16ZM256.41,128a120.4,120.4,0,0,0,2,16H176V128ZM212.34,44.7,192,69.1V96h16V84.94l20.42,10.21,7.16-14.31-23-11.48,12.63-15.15L262.42,81.6a119.06,119.06,0,0,0-6,30.39H176V18.33a14.19,14.19,0,0,1,1.7.85Zm-54-25.52a14.91,14.91,0,0,1,1.7-.84V112H32.34L90.61,69.06,98.3,87l44.13,8.83,3.15-15.69L109.7,73l-5.86-13.67ZM16,128H160v16H16Zm16,32H160V263a117.85,117.85,0,0,0-16-4.58V176H48V280.22a121.36,121.36,0,0,0-16,14.47Zm96,96.41c-2.66-.18-5.3-.41-8-.41A119.25,119.25,0,0,0,64,270V192h64ZM120,480A104,104,0,1,1,224,376,104.13,104.13,0,0,1,120,480ZM233,336A120.47,120.47,0,0,0,176,270V160h87a119.88,119.88,0,0,0,17.22,32H192v80h96V201.31a121.36,121.36,0,0,0,16,14.47v64.45A120.33,120.33,0,0,0,263,336Zm39-128v48H208V208ZM376,480A104,104,0,1,1,480,376,104.13,104.13,0,0,1,376,480Z"/><path class="cls-1" d="M168,304H104a24,24,0,0,0-22.53,16H48v46.25l64,16v19.22A24,24,0,0,0,96,424v16a24,24,0,0,0,48,0V424a24,24,0,0,0-16-22.53V369.74l-64-16V336H81.47A24,24,0,0,0,104,352h64a24,24,0,0,0,0-48ZM128,440a8,8,0,0,1-16,0V424a8,8,0,0,1,16,0Zm40-104H104a8,8,0,0,1,0-16h64a8,8,0,0,1,0,16Z"/><path class="cls-1" d="M344,144a46.41,46.41,0,0,0,12.38-1.69L399,185A24,24,0,1,0,433,151l-42.66-42.65A46.76,46.76,0,0,0,392,96a48.05,48.05,0,0,0-48-48h-3.31l-16,16,19,19A16,16,0,0,1,331,95.71l-19-19-16,16V96a48.05,48.05,0,0,0,48,48Zm-19.31-32H328a32,32,0,0,0,32-32V76.69L347.5,64.18a31.81,31.81,0,0,1,26.23,43.44l-1.92,4.88,49.85,49.84a8,8,0,0,1,0,11.32,8.13,8.13,0,0,1-11.32,0L360.5,123.82l-4.87,1.91A31.81,31.81,0,0,1,312.19,99.5Z"/><path class="cls-1" d="M351.9,327.43l-14.15,5.64L372.69,368l-18.48,18.49c-8.89-4-20.08-2.55-27.17,4.54l-16,16A24,24,0,1,0,345,441l16-16a23.72,23.72,0,0,0,4.63-27.25l18.4-18.4,34.92,34.92,5.66-14.13A215,215,0,0,0,440,320v-8h-8a214.51,214.51,0,0,0-80.1,15.43Zm-2.24,86.23-16,16a8.13,8.13,0,0,1-11.32,0,8,8,0,0,1,0-11.32l16-16a8,8,0,0,1,11.32,11.32Zm63.26-28.06L366.4,339.08a198.37,198.37,0,0,1,57.44-10.91,198.71,198.71,0,0,1-10.92,57.43Z"/></g></g></svg>