<svg xmlns="http://www.w3.org/2000/svg" width="72" height="57" viewBox="0 0 72 57">
  <g id="Сгруппировать_13" data-name="Сгруппировать 13" transform="translate(-809 -73)">
    <g id="Сгруппировать_3" data-name="Сгруппировать 3" transform="translate(-50 -4)">
      <g id="Многоугольник_1" data-name="Многоугольник 1" transform="translate(859 77)" fill="#3e3e3b">
        <path d="M 71.09284210205078 56.5 L 0.9071610569953918 56.5 L 36 0.9363383054733276 L 71.09284210205078 56.5 Z" stroke="none"/>
        <path d="M 36 1.8726806640625 L 1.814323425292969 56 L 70.18567657470703 56 L 36 1.8726806640625 M 36 0 L 72 57 L 0 57 L 36 0 Z" stroke="none" fill="#707070"/>
      </g>
      <g id="envelope" transform="translate(886 105)">
        <path id="envelope-2" data-name="envelope" d="M18.313,68.623a.219.219,0,0,1,.354.171V76.25A1.75,1.75,0,0,1,16.917,78H1.75A1.75,1.75,0,0,1,0,76.25V68.8a.218.218,0,0,1,.354-.171c.817.634,1.9,1.44,5.618,4.142.769.561,2.067,1.743,3.361,1.735,1.3.011,2.625-1.2,3.365-1.735C16.417,70.067,17.5,69.257,18.313,68.623Zm-8.98,4.71c.846.015,2.064-1.065,2.676-1.509,4.838-3.511,5.206-3.817,6.322-4.692a.872.872,0,0,0,.335-.689V65.75A1.75,1.75,0,0,0,16.917,64H1.75A1.75,1.75,0,0,0,0,65.75v.693a.878.878,0,0,0,.335.689c1.116.871,1.484,1.181,6.322,4.692C7.27,72.269,8.487,73.348,9.333,73.333Z" transform="translate(0 -64)" fill="#fff"/>
      </g>
    </g>
  </g>
</svg>
