<svg xmlns="http://www.w3.org/2000/svg" width="72" height="57" viewBox="0 0 72 57">
  <g id="Сгруппировать_12" data-name="Сгруппировать 12" transform="translate(-511 -73)">
    <g id="Сгруппировать_2" data-name="Сгруппировать 2" transform="translate(29 -10)">
      <g id="Многоугольник_1" data-name="Многоугольник 1" transform="translate(482 83)" fill="#3e3e3b">
        <path d="M 71.09284210205078 56.5 L 0.9071610569953918 56.5 L 36 0.9363383054733276 L 71.09284210205078 56.5 Z" stroke="none"/>
        <path d="M 36 1.8726806640625 L 1.814323425292969 56 L 70.18567657470703 56 L 36 1.8726806640625 M 36 0 L 72 57 L 0 57 L 36 0 Z" stroke="none" fill="#707070"/>
      </g>
      <g id="phone" transform="translate(508 111)">
        <path id="phone-2" data-name="phone" d="M19.14.944,15.1.013a.938.938,0,0,0-1.067.539L12.173,4.9a.929.929,0,0,0,.268,1.087l2.352,1.925a14.384,14.384,0,0,1-6.877,6.877L5.99,12.436A.93.93,0,0,0,4.9,12.169L.557,14.032A.943.943,0,0,0,.013,15.1l.931,4.036a.931.931,0,0,0,.908.722A18.007,18.007,0,0,0,19.862,1.853.93.93,0,0,0,19.14.944Z" transform="translate(0.01 0.011)" fill="#fff"/>
      </g>
    </g>
  </g>
</svg>
