<svg xmlns="http://www.w3.org/2000/svg" width="72" height="57" viewBox="0 0 72 57">
  <g id="Сгруппировать_14" data-name="Сгруппировать 14" transform="translate(-1264 -73)">
    <g id="Сгруппировать_11" data-name="Сгруппировать 11">
      <g id="Многоугольник_1" data-name="Многоугольник 1" transform="translate(1264 73)" fill="#3e3e3b">
        <path d="M 71.09284210205078 56.5 L 0.9071610569953918 56.5 L 36 0.9363383054733276 L 71.09284210205078 56.5 Z" stroke="none"/>
        <path d="M 36 1.8726806640625 L 1.814323425292969 56 L 70.18567657470703 56 L 36 1.8726806640625 M 36 0 L 72 57 L 0 57 L 36 0 Z" stroke="none" fill="#707070"/>
      </g>
      <g id="map-marker-alt" transform="translate(1295 101)">
        <path id="map-marker-alt-2" data-name="map-marker-alt" d="M4.71,13.718C.737,7.958,0,7.367,0,5.25a5.25,5.25,0,0,1,10.5,0c0,2.117-.737,2.708-4.71,8.468A.657.657,0,0,1,4.71,13.718Zm.54-6.28A2.187,2.187,0,1,0,3.062,5.25,2.187,2.187,0,0,0,5.25,7.437Z" fill="#fff7e7"/>
      </g>
    </g>
  </g>
</svg>
