<svg xmlns="http://www.w3.org/2000/svg" viewBox="0 0 480 480"><defs><style>.cls-1{fill:#3e3e3b;}</style></defs><g id="Слой_2" data-name="Слой 2"><g id="Слой_1-2" data-name="Слой 1"><g id="application_control" data-name="application control"><path class="cls-1" d="M80,456a24,24,0,1,0-24-24A24,24,0,0,0,80,456Zm0-32a8,8,0,1,1-8,8A8,8,0,0,1,80,424Z"/><path class="cls-1" d="M160,456a24,24,0,1,0-24-24A24,24,0,0,0,160,456Zm0-32a8,8,0,1,1-8,8A8,8,0,0,1,160,424Z"/><path class="cls-1" d="M400,456a24,24,0,1,0-24-24A24,24,0,0,0,400,456Zm0-32a8,8,0,1,1-8,8A8,8,0,0,1,400,424Z"/><path class="cls-1" d="M320,456a24,24,0,1,0-24-24A24,24,0,0,0,320,456Zm0-32a8,8,0,1,1-8,8A8,8,0,0,1,320,424Z"/><path class="cls-1" d="M240,456a24,24,0,1,0-24-24A24,24,0,0,0,240,456Zm0-32a8,8,0,1,1-8,8A8,8,0,0,1,240,424Z"/><path class="cls-1" d="M472,352H456V183.79a39.87,39.87,0,1,0-61.84-44.17L330.4,202.3A8,8,0,0,0,328,208v20.69l-21.66,21.65,11.32,11.32L339.32,240l19.88-.08a8,8,0,0,0,5.6-2.34L408,194.5V352H392a8,8,0,0,0-8,8v24H320v-8a40.05,40.05,0,0,0-40-40H200a40.05,40.05,0,0,0-40,40v8H128V360a8,8,0,0,0-8-8H104V320h32a24,24,0,0,0,24-24V216a24,24,0,0,0-24-24H24A24,24,0,0,0,0,216v80a24,24,0,0,0,24,24H56v32H40a8,8,0,0,0-8,8v24H8a8,8,0,0,0-8,8v80a8,8,0,0,0,8,8H472a8,8,0,0,0,8-8V360a8,8,0,0,0-8-8ZM432,128a24,24,0,1,1-24,24A24,24,0,0,1,432,128Zm-76.12,95.94L344,224V211.35l49.6-48.75A39.67,39.67,0,0,0,401.86,178ZM424,191.2a39.91,39.91,0,0,0,16,0V352H424ZM400,368h64v16H400Zm-224,8a24,24,0,0,1,24-24h80a24,24,0,0,1,24,24v8H176ZM96,240a8,8,0,1,1,8,8A8,8,0,0,1,96,240ZM16,296V216a8,8,0,0,1,8-8H136a8,8,0,0,1,8,8v80a8,8,0,0,1-8,8H112V262.53A24,24,0,1,0,80,240a25.31,25.31,0,0,0,.29,2.88l-27.87,14,7.2,14.3,27.77-13.92a24,24,0,0,0,8.64,5.3V304H24a8,8,0,0,1-8-8Zm56,24H88v32H72ZM48,368h64v16H48Zm416,96H16V400H464Z"/><path class="cls-1" d="M289.6,219.2l24-32,12.8,9.6-24,32Z"/><path class="cls-1" d="M264,184h16v32H264Z"/><path class="cls-1" d="M312,272h32v16H312Z"/><path class="cls-1" d="M308.22,311.24l7.15-14.31,32,16-7.15,14.31Z"/><path class="cls-1" d="M8,176H184a8,8,0,0,0,8-8V104a8,8,0,0,0-8-8H120V64H232V232h-4a44,44,0,0,0,0,88h24a44,44,0,0,0,0-88h-4V64H448a32,32,0,0,0,0-64H32a32,32,0,0,0,0,64H72V96H8a8,8,0,0,0-8,8v64A8,8,0,0,0,8,176ZM280,276a28,28,0,0,1-28,28H228a28,28,0,0,1,0-56h24A28,28,0,0,1,280,276ZM16,32A16,16,0,0,1,32,16H448a16,16,0,0,1,0,32H32A16,16,0,0,1,16,32ZM88,64h16V96H88ZM16,112H176v48H16Z"/><path class="cls-1" d="M32,128H48v16H32Z"/><path class="cls-1" d="M64,128h96v16H64Z"/><path class="cls-1" d="M32,272H48v16H32Z"/><path class="cls-1" d="M104,24h16V40H104Z"/><path class="cls-1" d="M40,24H56V40H40Z"/><path class="cls-1" d="M72,24H88V40H72Z"/><path class="cls-1" d="M136,24h16V40H136Z"/><path class="cls-1" d="M168,24h16V40H168Z"/><path class="cls-1" d="M200,24h16V40H200Z"/><path class="cls-1" d="M232,24h16V40H232Z"/><path class="cls-1" d="M264,24h16V40H264Z"/><path class="cls-1" d="M296,24h16V40H296Z"/><path class="cls-1" d="M328,24h16V40H328Z"/><path class="cls-1" d="M360,24h16V40H360Z"/><path class="cls-1" d="M392,24h16V40H392Z"/><path class="cls-1" d="M424,24h16V40H424Z"/></g></g></g></svg>