<svg xmlns="http://www.w3.org/2000/svg" viewBox="0 0 226.95 211.17"><defs><style>.cls-1{fill:#fff7e7;}</style></defs><g id="Слой_2" data-name="Слой 2"><g id="Слой_1-2" data-name="Слой 1"><g id="Слой_2-2" data-name="Слой 2"><g id="Слой_1-2-2" data-name="Слой 1-2"><path class="cls-1" d="M68.28,196.86c-3.06,0-5.13,1.51-5.13,3.92,0,5,7.61,3.26,7.61,6.4,0,1.09-1,1.71-2.64,1.71a7.42,7.42,0,0,1-4.77-2l-1,2a8.62,8.62,0,0,0,5.75,2.24c3.1,0,5.31-1.55,5.31-4.07,0-5.07-7.58-3.42-7.58-6.5,0-.94.9-1.47,2.29-1.47a8.42,8.42,0,0,1,4.13,1.31l1-2.09A9.12,9.12,0,0,0,68.28,196.86Z"/><polygon class="cls-1" points="87.64 199.09 87.64 196.96 77.58 196.96 77.58 211.04 87.88 211.04 87.88 208.91 79.95 208.91 79.95 205.03 86.83 205.03 86.83 202.9 79.95 202.9 79.95 199.09 87.64 199.09"/><path class="cls-1" d="M94.56,204.67v-5.58H97.9c2.17,0,3.42.89,3.42,2.74s-1.25,2.84-3.42,2.84Zm6.56,6.38h2.7l-3.16-4.71a4.53,4.53,0,0,0,2.91-4.57c0-3.06-2.07-4.81-5.67-4.81H92.19v14.09h2.37V206.8h4Z"/><polygon class="cls-1" points="114.42 211.04 120.11 196.96 117.64 196.96 113.25 208.41 108.91 196.96 106.35 196.96 111.97 211.04 114.42 211.04"/><rect class="cls-1" x="123.43" y="196.96" width="2.37" height="14.09"/><path class="cls-1" d="M137.16,196.92a7.13,7.13,0,0,0-.61,14.25c.18,0,.35,0,.53,0a8,8,0,0,0,5.45-2.32l-1.41-1.57a5.8,5.8,0,0,1-3.92,1.64,5,5,0,0,1-1.26-9.92,5.31,5.31,0,0,1,1.26,0,5.52,5.52,0,0,1,3.92,1.79l1.39-1.73A7.84,7.84,0,0,0,137.16,196.92Z"/><polygon class="cls-1" points="156.41 199.09 156.41 196.96 146.35 196.96 146.35 211.04 156.66 211.04 156.66 208.91 148.73 208.91 148.73 205.03 155.61 205.03 155.61 202.9 148.73 202.9 148.73 199.09 156.41 199.09"/><path class="cls-1" d="M18,176.85H8.48l4.78-11.27Zm1.63,3.8,2.43,5.72h4.56L15.58,161H11.19L0,186.37H4.46l2.42-5.72Z"/><path class="cls-1" d="M44.16,160.84c-5.51,0-9.24,2.71-9.24,7.06,0,9,13.69,5.87,13.69,11.52,0,2-1.77,3.08-4.74,3.08a13.36,13.36,0,0,1-8.59-3.7l-1.84,3.7a15.54,15.54,0,0,0,10.36,4c5.57,0,9.56-2.79,9.56-7.32,0-9.13-13.66-6.16-13.66-11.7,0-1.7,1.63-2.64,4.13-2.64a15.31,15.31,0,0,1,7.43,2.35L53,163.44A16.5,16.5,0,0,0,44.16,160.84Z"/><polygon class="cls-1" points="81.47 164.86 81.47 161.02 61.15 161.02 61.15 164.86 69.15 164.86 69.15 186.37 73.43 186.37 73.43 164.86 81.47 164.86"/><path class="cls-1" d="M105.67,176.85H96.1l4.79-11.27Zm1.63,3.8,2.42,5.72h4.57L103.2,161H98.82L87.63,186.37h4.45l2.43-5.72Z"/><path class="cls-1" d="M142.87,175.29h6.52c3.33,0,5.33,1.34,5.33,3.59s-2,3.69-5.33,3.69h-6.52Zm0-10.47h6.52c2.72,0,4.35,1.16,4.35,3.3s-1.63,3.4-4.35,3.4h-6.52ZM138.6,161v25.35h11.26c5.73,0,9.24-2.6,9.24-7a6.16,6.16,0,0,0-5.43-6.41,5.55,5.55,0,0,0,4.45-5.65c0-4-3.26-6.34-8.51-6.34Z"/><path class="cls-1" d="M191.52,161h-4.27v14.9c0,4.31-2.58,6.85-6.71,6.85s-6.81-2.58-6.81-6.85V161h-4.27v14.9c0,6.63,4.2,10.69,11,10.69s11-4.06,11-10.69Z"/><path class="cls-1" d="M207.71,164.86h6a8.64,8.64,0,0,1,8.88,8.39v.48a8.5,8.5,0,0,1-8.19,8.8h-6.74ZM203.44,161v25.35h10.28c7.68,0,13.23-5.36,13.23-12.67S221.44,161,213.83,161Z"/><path class="cls-1" d="M98.14,137.66H130.6L114.45,60.52Zm38.92,5.16H91.68L114.45,35Z"/><path class="cls-1" d="M21.76,137.82H170.49l-74.28-127Zm157.61,5H12.23L96,.49Z"/><path class="cls-1" d="M58.58,137.34H207.31L133,10.33Zm156.15,5.48H47.92L132.86,0Z"/></g></g></g></g></svg>