<svg id="Logo" xmlns="http://www.w3.org/2000/svg" xmlns:xlink="http://www.w3.org/1999/xlink" width="117.26" height="110.174" viewBox="0 0 117.26 110.174">
  <defs>
    <clipPath id="clip-path">
      <rect id="Прямоугольник_5" data-name="Прямоугольник 5" width="104.27" height="73.76" transform="translate(6.3 -0.04)" fill="none"/>
    </clipPath>
  </defs>
  <g id="Слой_1" data-name="Слой 1" transform="translate(0 0.04)">
    <g id="Слой_2" data-name="Слой 2">
      <g id="Слой_1-2" data-name="Слой 1-2">
        <path id="Контур_1" data-name="Контур 1" d="M2.3,106.93H4.16c1,0,1.53.38,1.53,1S5.13,109,4.16,109H2.3Zm0-3H4.16c.77,0,1.25.33,1.25.94s-.47,1-1.25,1H2.3Zm-1.22-1.09v7.25H4.31c1.63,0,2.64-.74,2.64-2a1.77,1.77,0,0,0-1.56-1.83,1.59,1.59,0,0,0,1.28-1.62c0-1.13-.93-1.81-2.44-1.81Z" transform="translate(0 -0.04)" fill="#fff7e7"/>
        <path id="Контур_2" data-name="Контур 2" d="M15.09,102.85H13.87v4.25a1.78,1.78,0,0,1-1.92,2,1.81,1.81,0,0,1-1.95-2v-4.25H8.78v4.25a2.88,2.88,0,0,0,3.16,3.06,2.87,2.87,0,0,0,3.15-3.06Z" transform="translate(0 -0.04)" fill="#fff7e7"/>
        <rect id="Прямоугольник_3" data-name="Прямоугольник 3" width="1.22" height="7.25" transform="translate(17.37 102.81)" fill="#fff7e7"/>
        <path id="Контур_3" data-name="Контур 3" d="M22.25,108.95v-6.14H21.03v7.25h4.36v-1.11Z" fill="#fff7e7"/>
        <path id="Контур_4" data-name="Контур 4" d="M28.31,103.94H30a2.48,2.48,0,0,1,2.54,2.4v.14a2.42,2.42,0,0,1-2.3,2.52H28.31Zm-1.22-1.1v7.25H30a3.63,3.63,0,1,0,0-7.25Z" transform="translate(0 -0.04)" fill="#fff7e7"/>
        <rect id="Прямоугольник_4" data-name="Прямоугольник 4" width="1.22" height="7.25" transform="translate(35.65 102.81)" fill="#fff7e7"/>
        <path id="Контур_5" data-name="Контур 5" d="M45.59,110.06v-7.25h-1.2v5.21l-3.88-5.21H39.3v7.25h1.23v-5.2l3.86,5.2Z" fill="#fff7e7"/>
        <path id="Контур_6" data-name="Контур 6" d="M53,106.54v2a3.49,3.49,0,0,1-1.67.49,2.58,2.58,0,0,1,0-5.15,3.11,3.11,0,0,1,2.09.83l.7-.91a4.43,4.43,0,0,0-2.79-1,3.67,3.67,0,0,0-.07,7.34,5,5,0,0,0,2.81-.94v-2.66Z" transform="translate(0 -0.04)" fill="#fff7e7"/>
        <path id="Контур_7" data-name="Контур 7" d="M62.74,102.82a3.67,3.67,0,1,0-.15,7.33h.11A4.13,4.13,0,0,0,65.51,109l-.73-.81a3,3,0,0,1-2,.86,2.55,2.55,0,0,1,0-5.1,2.79,2.79,0,0,1,2,.92l.72-.89A4,4,0,0,0,62.74,102.82Z" transform="translate(0 -0.04)" fill="#fff7e7"/>
        <path id="Контур_8" data-name="Контур 8" d="M70.53,103.92a2.57,2.57,0,0,1,0,5.13h0a2.57,2.57,0,1,1,0-5.13Zm0-1.1a3.68,3.68,0,1,0,2.7,1.005A3.67,3.67,0,0,0,70.53,102.82Z" transform="translate(0 -0.04)" fill="#fff7e7"/>
        <path id="Контур_9" data-name="Контур 9" d="M83.87,110.06v-7.25H82.43l-2.39,4.81-2.39-4.81H76.2v7.25h1.15v-5.42l2.29,4.66h.8l2.29-4.66.01,5.42Z" fill="#fff7e7"/>
        <path id="Контур_10" data-name="Контур 10" d="M87.53,103.94h1.62c1.12,0,1.75.45,1.75,1.41s-.63,1.46-1.75,1.46H87.53Zm-1.22-1.1v7.25h1.22v-2.18H89.2c1.83,0,2.87-1,2.87-2.59s-1-2.48-2.87-2.48Z" transform="translate(0 -0.04)" fill="#fff7e7"/>
        <path id="Контур_11" data-name="Контур 11" d="M98,107.38H95.29l1.37-3.23Zm.47,1.08.69,1.64h1.31l-3.18-7.25H96.07l-3.2,7.25h1.28l.69-1.64Z" transform="translate(0 -0.04)" fill="#fff7e7"/>
        <path id="Контур_12" data-name="Контур 12" d="M108.28,110.06v-7.25h-1.2v5.21l-3.89-5.21h-1.2v7.25h1.22v-5.2l3.87,5.2Z" fill="#fff7e7"/>
        <path id="Контур_13" data-name="Контур 13" d="M113.69,107.64l2.67-4.83h-1.25l-2.03,3.53-2.07-3.53h-1.23l2.7,4.88v2.37h1.21Z" fill="#fff7e7"/>
        <path id="Контур_14" data-name="Контур 14" d="M9.29,91.1H4.36l2.47-5.8Zm.84,2,1.25,3h2.35L8,83H5.76L0,96H2.3l1.25-2.94Z" transform="translate(0 -0.04)" fill="#fff7e7"/>
        <path id="Контур_15" data-name="Контур 15" d="M22.73,82.86c-2.84,0-4.76,1.4-4.76,3.64,0,4.64,7.05,3,7.05,5.93,0,1-.91,1.58-2.44,1.58a6.9,6.9,0,0,1-4.42-1.9L17.21,94a8,8,0,0,0,5.33,2.07c2.87,0,4.93-1.43,4.93-3.76,0-4.7-7-3.18-7-6,0-.87.84-1.36,2.13-1.36a7.8,7.8,0,0,1,3.83,1.21l.92-1.94a8.56,8.56,0,0,0-4.62-1.36Z" transform="translate(0 -0.04)" fill="#fff7e7"/>
        <path id="Контур_16" data-name="Контур 16" d="M41.95,84.89V82.91H31.49v1.98h4.12V95.97h2.2V84.89Z" fill="#fff7e7"/>
        <path id="Контур_17" data-name="Контур 17" d="M54.41,91.1H49.49L52,85.3Zm.84,2,1.25,3h2.35L53.14,83H50.88L45.12,96h2.3l1.25-2.94Z" transform="translate(0 -0.04)" fill="#fff7e7"/>
        <path id="Контур_18" data-name="Контур 18" d="M73.57,90.3h3.36c1.71,0,2.74.69,2.74,1.85s-1,1.9-2.74,1.9H73.57Zm0-5.39h3.36c1.39,0,2.23.6,2.23,1.7s-.84,1.75-2.23,1.75H73.57Zm-2.2-2V96h5.8c2.94,0,4.75-1.34,4.75-3.57a3.17,3.17,0,0,0-2.81-3.31,2.84,2.84,0,0,0,2.3-2.9c0-2-1.68-3.27-4.38-3.27Z" transform="translate(0 -0.04)" fill="#fff7e7"/>
        <path id="Контур_19" data-name="Контур 19" d="M98.62,83h-2.2v7.6A3.22,3.22,0,0,1,93,94.13a3.27,3.27,0,0,1-3.51-3.53V83h-2.2v7.6c0,3.41,2.16,5.5,5.69,5.5s5.67-2.09,5.67-5.5Z" transform="translate(0 -0.04)" fill="#fff7e7"/>
        <path id="Контур_20" data-name="Контур 20" d="M107,84.93h3.12a4.45,4.45,0,0,1,4.57,4.57,4.36,4.36,0,0,1-4.53,4.5H107Zm-2.2-2V96h5.3a6.53,6.53,0,1,0,.01-13Z" transform="translate(0 -0.04)" fill="#fff7e7"/>
        <g id="Сгруппировать_1" data-name="Сгруппировать 1" clip-path="url(#clip-path)">
          <path id="Контур_21" data-name="Контур 21" d="M50.54,70.93H67.25L58.93,31.2Zm20,2.65H47.21L58.93,18.07Z" transform="translate(0 -0.04)" fill="#fff7e7"/>
          <path id="Контур_22" data-name="Контур 22" d="M11.21,71H87.79L49.54,5.62Zm81.15,2.57H6.3L49.46.29Z" transform="translate(0 -0.04)" fill="#fff7e7"/>
          <path id="Контур_23" data-name="Контур 23" d="M30.17,70.76h76.58L68.5,5.36Zm80.41,2.82H24.68L68.41,0Z" transform="translate(0 -0.04)" fill="#fff7e7"/>
        </g>
      </g>
    </g>
  </g>
</svg>
