<svg xmlns="http://www.w3.org/2000/svg" xmlns:xlink="http://www.w3.org/1999/xlink" viewBox="0 0 226.95 186.61"><defs><style>.cls-1{fill:none;}.cls-2{fill:#3e3e3b;}.cls-3{clip-path:url(#clip-path);}.cls-4{fill:#4c586f;}.cls-5{fill:#dbae58;}</style><clipPath id="clip-path" transform="translate(0 -0.08)"><rect class="cls-1" x="12.23" width="202.5" height="143.25"/></clipPath></defs><g id="Слой_2" data-name="Слой 2"><g id="Слой_1-2" data-name="Слой 1"><g id="Слой_2-2" data-name="Слой 2"><g id="Слой_1-2-2" data-name="Слой 1-2"><path class="cls-2" d="M18,176.93H8.48l4.78-11.27Zm1.63,3.8,2.43,5.72h4.56l-11-25.35H11.19L0,186.45H4.46l2.42-5.72Z" transform="translate(0 -0.08)"/><path class="cls-2" d="M44.16,160.92c-5.51,0-9.24,2.71-9.24,7.06,0,9,13.69,5.87,13.69,11.52,0,2-1.77,3.08-4.74,3.08a13.36,13.36,0,0,1-8.59-3.7l-1.84,3.7a15.54,15.54,0,0,0,10.36,4c5.57,0,9.56-2.79,9.56-7.32,0-9.13-13.66-6.16-13.66-11.7,0-1.7,1.63-2.64,4.13-2.64a15.31,15.31,0,0,1,7.43,2.35L53,163.52A16.5,16.5,0,0,0,44.16,160.92Z" transform="translate(0 -0.08)"/><polygon class="cls-2" points="81.47 164.86 81.47 161.02 61.15 161.02 61.15 164.86 69.15 164.86 69.15 186.37 73.43 186.37 73.43 164.86 81.47 164.86"/><path class="cls-2" d="M105.67,176.93H96.1l4.79-11.27Zm1.63,3.8,2.42,5.72h4.57L103.2,161.1H98.82L87.63,186.45h4.45l2.43-5.72Z" transform="translate(0 -0.08)"/><path class="cls-2" d="M142.87,175.37h6.52c3.33,0,5.33,1.34,5.33,3.59s-2,3.69-5.33,3.69h-6.52Zm0-10.47h6.52c2.72,0,4.35,1.16,4.35,3.3s-1.63,3.4-4.35,3.4h-6.52Zm-4.27-3.8v25.35h11.26c5.73,0,9.24-2.6,9.24-6.95a6.16,6.16,0,0,0-5.43-6.41,5.55,5.55,0,0,0,4.45-5.65c0-3.95-3.26-6.34-8.51-6.34Z" transform="translate(0 -0.08)"/><path class="cls-2" d="M191.52,161.1h-4.27V176c0,4.31-2.58,6.85-6.71,6.85s-6.81-2.58-6.81-6.85V161.1h-4.27V176c0,6.63,4.2,10.69,11,10.69s11-4.06,11-10.69Z" transform="translate(0 -0.08)"/><path class="cls-2" d="M207.71,164.94h6a8.64,8.64,0,0,1,8.88,8.39v.48a8.5,8.5,0,0,1-8.19,8.8h-6.74Zm-4.27-3.84v25.35h10.28c7.68,0,13.23-5.36,13.23-12.67s-5.51-12.68-13.12-12.68Z" transform="translate(0 -0.08)"/><g class="cls-3"><path class="cls-4" d="M98.14,137.74H130.6L114.45,60.6Zm38.92,5.16H91.68L114.45,35.1Z" transform="translate(0 -0.08)"/><path class="cls-5" d="M21.76,137.9H170.49L96.21,10.9Zm157.61,5H12.23L96,.57Z" transform="translate(0 -0.08)"/><path class="cls-2" d="M58.58,137.42H207.31L133,10.41Zm156.15,5.48H47.92L132.86.08Z" transform="translate(0 -0.08)"/></g></g></g></g></g></svg>