<svg xmlns="http://www.w3.org/2000/svg" xmlns:xlink="http://www.w3.org/1999/xlink" viewBox="0 0 457.6 431.17"><defs><style>.cls-1{fill:none;}.cls-2{fill:#4c586f;}.cls-3{fill:#2f3131;}.cls-4{clip-path:url(#clip-path);}.cls-5{fill:#dbae58;}.cls-6{fill:#3e3e3b;}</style><clipPath id="clip-path" transform="translate(0 -0.16)"><rect class="cls-1" x="24.67" width="408.3" height="288.84"/></clipPath></defs><g id="Слой_2" data-name="Слой 2"><g id="Слой_1-2" data-name="Слой 1"><path class="cls-2" d="M9,418.71h7.3c3.73,0,6,1.5,6,4,0,2.68-2.23,4.14-6,4.14H9ZM9,407h7.3c3,0,4.87,1.3,4.87,3.69s-1.83,3.81-4.87,3.81H9Zm-4.79-4.26v28.4H16.86c6.41,0,10.34-2.92,10.34-7.79a6.88,6.88,0,0,0-6.08-7.18,6.23,6.23,0,0,0,5-6.33c0-4.43-3.66-7.1-9.54-7.1Z" transform="translate(0 -0.16)"/><path class="cls-2" d="M59.09,402.73H54.3v16.63c0,4.83-2.88,7.67-7.5,7.67s-7.63-2.88-7.63-7.67V402.73H34.38v16.63c0,7.43,4.71,12,12.38,12s12.33-4.54,12.33-12Z" transform="translate(0 -0.16)"/><rect class="cls-2" x="68.01" y="402.56" width="4.79" height="28.4"/><polygon class="cls-2" points="87.12 426.62 87.12 402.56 82.34 402.56 82.34 430.96 99.42 430.96 99.42 426.62 87.12 426.62"/><path class="cls-2" d="M110.86,407h6.77a9.68,9.68,0,0,1,9.94,9.94,9.52,9.52,0,0,1-9.73,9.86h-7Zm-4.79-4.3v28.4h11.52c8.61,0,14.81-6,14.81-14.2s-6.16-14.2-14.68-14.2Z" transform="translate(0 -0.16)"/><rect class="cls-2" x="139.58" y="402.56" width="4.79" height="28.4"/><polygon class="cls-2" points="178.53 430.96 178.53 402.56 173.83 402.56 173.83 422.97 158.61 402.56 153.9 402.56 153.9 430.96 158.69 430.96 158.69 410.6 173.83 430.96 178.53 430.96"/><path class="cls-2" d="M207.54,417.17v7.91A13.2,13.2,0,0,1,201,427a10.08,10.08,0,1,1,0-20.16,12.32,12.32,0,0,1,8.19,3.24l2.72-3.53a17.08,17.08,0,0,0-10.91-4c-8.6,0-15.22,6.21-15.22,14.33s6.53,14.4,14.93,14.4a19.26,19.26,0,0,0,11-3.69V417.17Z" transform="translate(0 -0.16)"/><path class="cls-2" d="M245.68,402.6c-8.4,0-14.93,6.21-14.93,14.29a14.39,14.39,0,0,0,14.76,14.44,16.09,16.09,0,0,0,11-4.67l-2.84-3.16a11.74,11.74,0,0,1-7.91,3.37,10,10,0,1,1,0-20,11.06,11.06,0,0,1,7.91,3.61l2.8-3.49A15.68,15.68,0,0,0,245.68,402.6Z" transform="translate(0 -0.16)"/><path class="cls-2" d="M276.19,406.91a10.06,10.06,0,1,1,0,20.12,10.06,10.06,0,1,1,0-20.12Zm0-4.31c-8.48,0-15.06,6.17-15.06,14.33s6.58,14.4,15.06,14.4,15.05-6.29,15.05-14.4S284.63,402.6,276.15,402.6Z" transform="translate(0 -0.16)"/><polygon class="cls-2" points="328.4 430.96 328.4 402.56 322.76 402.56 313.43 421.43 304.06 402.56 298.38 402.56 298.38 430.96 302.88 430.96 302.88 409.74 311.85 428 314.97 428 323.94 409.74 323.98 430.96 328.4 430.96"/><path class="cls-2" d="M342.76,407h6.33c4.38,0,6.86,1.78,6.86,5.52s-2.48,5.72-6.86,5.72h-6.33Zm-4.79-4.3v28.4h4.79v-8.56h6.53c7.15,0,11.24-3.74,11.24-10.15,0-6.16-4.09-9.69-11.24-9.69Z" transform="translate(0 -0.16)"/><path class="cls-2" d="M383.86,420.46H373.15l5.36-12.62Zm1.83,4.26,2.72,6.41h5.11l-12.42-28.4h-4.91l-12.53,28.4h5l2.72-6.41Z" transform="translate(0 -0.16)"/><polygon class="cls-2" points="423.99 430.96 423.99 402.56 419.28 402.56 419.28 422.97 404.06 402.56 399.36 402.56 399.36 430.96 404.15 430.96 404.15 410.6 419.28 430.96 423.99 430.96"/><polygon class="cls-2" points="445.2 421.51 455.63 402.56 450.76 402.56 442.81 416.4 434.7 402.56 429.87 402.56 440.46 421.67 440.46 430.96 445.2 430.96 445.2 421.51"/><path class="cls-3" d="M36.37,356.74H17.09L26.73,334Zm3.29,7.67L44.56,376h9.2L31.41,324.82H22.57L0,376H9l4.9-11.54Z" transform="translate(0 -0.16)"/><path class="cls-3" d="M89,324.46c-11.11,0-18.63,5.48-18.63,14.24,0,18.19,27.61,11.83,27.61,23.23,0,3.94-3.58,6.21-9.57,6.21-5.48,0-12-2.63-17.31-7.45l-3.72,7.45a31.42,31.42,0,0,0,20.89,8.1c11.24,0,19.28-5.62,19.28-14.75.07-18.41-27.54-12.42-27.54-23.59,0-3.43,3.29-5.33,8.33-5.33,3.87,0,9.42,1.38,15,4.74l3.58-7.59A33.31,33.31,0,0,0,89,324.46Z" transform="translate(0 -0.16)"/><polygon class="cls-3" points="164.27 332.4 164.27 324.66 123.29 324.66 123.29 332.4 139.43 332.4 139.43 375.79 148.05 375.79 148.05 332.4 164.27 332.4"/><path class="cls-3" d="M213.06,356.74H193.78L203.42,334Zm3.29,7.67L221.24,376h9.2l-22.35-51.13h-8.84L176.68,376h9l4.89-11.54Z" transform="translate(0 -0.16)"/><path class="cls-3" d="M288.07,353.6h13.15c6.72,0,10.74,2.7,10.74,7.23,0,4.82-4,7.45-10.74,7.45H288.07Zm0-21.11h13.15c5.48,0,8.76,2.34,8.76,6.65S306.7,346,301.22,346H288.07Zm-8.62-7.67V376h22.72c11.54,0,18.62-5.26,18.62-14,0-6.87-4.09-11.76-11-12.93a11.18,11.18,0,0,0,9-11.39c0-8-6.57-12.79-17.16-12.79Z" transform="translate(0 -0.16)"/><path class="cls-3" d="M386.17,324.82h-8.62v29.95c0,8.69-5.19,13.81-13.52,13.81s-13.73-5.19-13.73-13.81V324.82h-8.62v29.95c0,13.37,8.48,21.55,22.28,21.55s22.21-8.18,22.21-21.55Z" transform="translate(0 -0.16)"/><path class="cls-3" d="M418.81,332.57H431c10.08,0,17.9,7.45,17.9,17.89s-7.6,17.75-17.53,17.75H418.81Zm-8.62-7.75V376h20.75c15.48,0,26.66-10.81,26.66-25.56s-11.1-25.57-26.44-25.57Z" transform="translate(0 -0.16)"/><g class="cls-4"><path class="cls-2" d="M197.89,277.73h65.44L230.77,122.19Zm78.47,10.41h-91.5L230.77,70.77Z" transform="translate(0 -0.16)"/><path class="cls-5" d="M43.88,278.05H343.76L194,22Zm317.79,10.09h-337l169-287Z" transform="translate(0 -0.16)"/><path class="cls-6" d="M118.12,277.08H418L268.22,21ZM433,288.14H96.63L267.89.16Z" transform="translate(0 -0.16)"/></g></g></g></svg>