<svg xmlns="http://www.w3.org/2000/svg" width="83.902" height="50.771" viewBox="0 0 83.902 50.771">
  <g id="Слой_2" data-name="Слой 2" transform="translate(0.001 0)">
    <g id="Слой_1" data-name="Слой 1">
      <path id="Контур_32" data-name="Контур 32" d="M1.9,50.77a1.78,1.78,0,0,1-1.34-.6A2,2,0,0,1,0,48.8V37.62a2,2,0,0,1,.56-1.44,1.78,1.78,0,0,1,1.34-.6H24a1.76,1.76,0,0,1,1.33.6,2,2,0,0,1,.57,1.44V48.8a1.94,1.94,0,0,1-.57,1.37,1.76,1.76,0,0,1-1.33.6Zm20.88-3.1v-9H3.16v9ZM5.62,15.19a1.44,1.44,0,0,1-1.08-.46,1.47,1.47,0,0,1-.46-1.09,1.57,1.57,0,0,1,1.54-1.55H22.71v-9h-6.4a1.54,1.54,0,0,1-1.54-1.54A1.48,1.48,0,0,1,15.22.46,1.48,1.48,0,0,1,16.31,0h7.6a1.76,1.76,0,0,1,1.33.6A1.91,1.91,0,0,1,25.8,2V13.15a2,2,0,0,1-.56,1.44,1.76,1.76,0,0,1-1.33.6ZM17.16,32.34a1.83,1.83,0,0,1-1.41-.59,2,2,0,0,1-.56-1.45V19.12a1.93,1.93,0,0,1,.56-1.37,1.86,1.86,0,0,1,1.41-.59h22a1.81,1.81,0,0,1,1.34.59,2,2,0,0,1,.56,1.37V30.3a2.06,2.06,0,0,1-.56,1.45,1.77,1.77,0,0,1-1.34.59ZM38,29.25v-9H18.35v9ZM30.9,15.19a1.78,1.78,0,0,1-1.34-.6A2.05,2.05,0,0,1,29,13.15V2A2,2,0,0,1,29.53.6,1.78,1.78,0,0,1,30.87,0H53a1.76,1.76,0,0,1,1.33.6A1.91,1.91,0,0,1,54.84,2V13.15a2,2,0,0,1-.56,1.44,1.76,1.76,0,0,1-1.33.6Zm.07,35.58a1.78,1.78,0,0,1-1.34-.6A2,2,0,0,1,29,48.8V37.62a2,2,0,0,1,.56-1.44,1.78,1.78,0,0,1,1.34-.6H53a1.76,1.76,0,0,1,1.33.6,2,2,0,0,1,.56,1.44V48.8a1.93,1.93,0,0,1-.56,1.37,1.76,1.76,0,0,1-1.33.6ZM51.75,12.09v-9H32.06v9Zm0,35.58v-9H32.13v9ZM46.12,32.34a1.75,1.75,0,0,1-1.33-.59,2,2,0,0,1-.56-1.45V19.12a1.93,1.93,0,0,1,.56-1.37,1.78,1.78,0,0,1,1.33-.59H68.2a1.81,1.81,0,0,1,1.34.59,2,2,0,0,1,.56,1.37V30.3a2.06,2.06,0,0,1-.56,1.45,1.77,1.77,0,0,1-1.34.59ZM67,29.25v-9H47.39v9ZM59.9,15.19a1.76,1.76,0,0,1-1.34-.6A2,2,0,0,1,58,13.15V2A1.91,1.91,0,0,1,58.57.6,1.76,1.76,0,0,1,59.91,0h9A1.48,1.48,0,0,1,70,.46a1.48,1.48,0,0,1,.45,1.09,1.54,1.54,0,0,1-1.54,1.54H61.1v9H77.84a1.62,1.62,0,0,1,1.16.46,1.545,1.545,0,0,1,0,2.18,1.58,1.58,0,0,1-1.16.46ZM60,50.77a1.78,1.78,0,0,1-1.34-.6,1.93,1.93,0,0,1-.56-1.37V37.62a2,2,0,0,1,.56-1.44,1.78,1.78,0,0,1,1.34-.6H82a1.76,1.76,0,0,1,1.38.6,2.07,2.07,0,0,1,.52,1.44V48.8a2,2,0,0,1-.52,1.37,1.76,1.76,0,0,1-1.38.6Zm20.81-3.1v-9H61.17v9Z"/>
    </g>
  </g>
</svg>
