<svg xmlns="http://www.w3.org/2000/svg" width="84.064" height="69.988" viewBox="0 0 84.064 69.988">
  <g id="Слой_2" data-name="Слой 2" transform="translate(-0.006 -0.042)">
    <g id="Слой_1" data-name="Слой 1">
      <path id="Контур_29" data-name="Контур 29" d="M10.62,70a1.33,1.33,0,0,1-.57-.14,1.9,1.9,0,0,1-.49-.35,1.41,1.41,0,0,1-.31-.49,1.65,1.65,0,0,1-.11-.57v-31a16.56,16.56,0,0,1-6.71-5.8A14.5,14.5,0,0,1,2.85,15a16.72,16.72,0,0,1,7.7-5.87,1.41,1.41,0,0,1,.7-.1,1.63,1.63,0,0,1,.7.24,2.31,2.31,0,0,1,.5.53,1.31,1.31,0,0,1,.21.74V21.87a1.87,1.87,0,0,0,.56,1.4,1.8,1.8,0,0,0,1.33.57h7a1.93,1.93,0,0,0,2-2V10.55a1.47,1.47,0,0,1,.18-.74,1.42,1.42,0,0,1,.53-.53,1.23,1.23,0,0,1,.6-.28,1.51,1.51,0,0,1,.73.1A17,17,0,0,1,33.26,15a14.37,14.37,0,0,1,.42,16.67A17,17,0,0,1,27,37.48v31a1.65,1.65,0,0,1-.11.57,1.41,1.41,0,0,1-.31.49,1.9,1.9,0,0,1-.49.35,1.47,1.47,0,0,1-.64.14ZM24,67V36.49a1.52,1.52,0,0,1,.24-.81,1.74,1.74,0,0,1,.67-.59,14,14,0,0,0,5.94-4.71,11.37,11.37,0,0,0,2.22-6.76,11.2,11.2,0,0,0-1.76-6A13.53,13.53,0,0,0,26.51,13v8.86a4.92,4.92,0,0,1-5,5h-7A4.84,4.84,0,0,1,11,25.42a4.76,4.76,0,0,1-1.48-3.55V13a13.53,13.53,0,0,0-4.78,4.57,11.2,11.2,0,0,0-1.76,6A11.37,11.37,0,0,0,5.2,30.33a13.9,13.9,0,0,0,6,4.71,1.74,1.74,0,0,1,.67.59,1.52,1.52,0,0,1,.24.81V67Zm9.28,3a1.47,1.47,0,0,1-1.09-.46,1.45,1.45,0,0,1-.46-1.09,1.55,1.55,0,0,1,1.55-1.54H69.47a2.41,2.41,0,0,0,2.39-2.39V32.27a1.35,1.35,0,0,1,.46-1.05,1.53,1.53,0,0,1,1.09-.42h7.17a1.12,1.12,0,0,0,.28-.46,1.56,1.56,0,0,0,.07-.46,1.38,1.38,0,0,0-.18-.67,2,2,0,0,0-.52-.59L48.8,3.73A3.16,3.16,0,0,0,46.72,3a3.11,3.11,0,0,0-2.07.71L37,9.77a1.51,1.51,0,0,1-1.12.28,1.29,1.29,0,0,1-1-.56,1.36,1.36,0,0,1-.36-1.09,1.56,1.56,0,0,1,.57-1l7.66-6a6.57,6.57,0,0,1,8,0l31.42,25a4.35,4.35,0,0,1,1.41,1.58,4.25,4.25,0,0,1,.49,2,4.05,4.05,0,0,1-.49,2,5.13,5.13,0,0,1-1.41,1.62.67.67,0,0,1-.38.28,1.83,1.83,0,0,1-.53.07H75v30.6A5.51,5.51,0,0,1,69.47,70Zm5.76-15a3,3,0,0,1-3-3V36.7a3,3,0,0,1,3-3h15.4a2.91,2.91,0,0,1,2.15.88,2.94,2.94,0,0,1,.88,2.14V52a3,3,0,0,1-3,3ZM39,36.7V52H54.4V36.7Z" fill="#3e3e3b"/>
    </g>
  </g>
</svg>
