<svg xmlns="http://www.w3.org/2000/svg" width="72.006" height="70.31" viewBox="0 0 72.006 70.31">
  <g id="Слой_2" data-name="Слой 2" transform="translate(0.002)">
    <g id="Слой_1" data-name="Слой 1">
      <path id="Контур_33" data-name="Контур 33" d="M8.87,34a14.24,14.24,0,0,1-4.64-3.13A14.64,14.64,0,0,1,.39,24a14,14,0,0,1,.39-7.9,1.09,1.09,0,0,1,.35-.6,1.32,1.32,0,0,1,.64-.31,1,1,0,0,1,.7,0,1.51,1.51,0,0,1,.63.39l7.81,7.8c0,.05,0,.07.07.07a.21.21,0,0,0,.14-.07l5.9-6a.06.06,0,0,0,.07-.07.17.17,0,0,0-.07-.14L9.29,9.35a1.45,1.45,0,0,1-.39-.63,1.39,1.39,0,0,1,0-.7,1,1,0,0,1,.35-.67A2.15,2.15,0,0,1,9.85,7,17,17,0,0,1,12,6.4a12.59,12.59,0,0,1,2.32-.21,14,14,0,0,1,5.49,1.09,13.75,13.75,0,0,1,4.64,3.2,14.08,14.08,0,0,1,3.12,4.67,14.52,14.52,0,0,1,0,11,14.12,14.12,0,0,1-3.12,4.68A14.46,14.46,0,0,1,19.84,34a14.35,14.35,0,0,1-11,0ZM3.52,24.47a11.93,11.93,0,0,0,2.67,4.36A12.24,12.24,0,0,0,10,31.32a11.376,11.376,0,0,0,12.48-2.49,11.57,11.57,0,0,0,2.49-12.59,12.1,12.1,0,0,0-2.49-3.79A11.65,11.65,0,0,0,18.75,10a11.12,11.12,0,0,0-4.4-.88,4.22,4.22,0,0,0-.6,0h-.66l6,6a3.11,3.11,0,0,1,.85,2.18,2.9,2.9,0,0,1-.85,2.11l-5.9,6a3.21,3.21,0,0,1-1,.67A2.82,2.82,0,0,1,11,26.3a2.72,2.72,0,0,1-1.13-.25,3.16,3.16,0,0,1-1-.67L3,19.41a11.58,11.58,0,0,0,.52,5.06ZM14.07,69.93a5.49,5.49,0,0,1-1.69-1.16L7.25,63.63a4.907,4.907,0,0,1-1.48-3.86,4.45,4.45,0,0,1,.5-2A5.93,5.93,0,0,1,7.6,56L45.85,22.71a1.29,1.29,0,0,1,1-.39,1.22,1.22,0,0,1,1,.53,1.17,1.17,0,0,1,.35,1,1.4,1.4,0,0,1-.49.95L9.5,58.15a2.23,2.23,0,0,0-.63.81,3.15,3.15,0,0,0-.28.95,2.4,2.4,0,0,0,.17.88,2.24,2.24,0,0,0,.53.8l5.13,5.14a2.345,2.345,0,0,0,1.69.7,1.71,1.71,0,0,0,.91-.25,4,4,0,0,0,.78-.59l33-38.54a1.39,1.39,0,0,1,1-.52,1.42,1.42,0,0,1,1.05.38,1.33,1.33,0,0,1,.46.95A1.63,1.63,0,0,1,53,30L20,68.41a5.23,5.23,0,0,1-1.69,1.34,5.29,5.29,0,0,1-2.11.56H16A5,5,0,0,1,14.07,69.93ZM23.6,39.8a1.06,1.06,0,0,1-.46-.28c-.42-.33-.86-.66-1.3-1l-1.37-1c-.75-.47-1.5-.93-2.25-1.37A22.26,22.26,0,0,0,16,35a1.16,1.16,0,0,1-.74-.78,1.6,1.6,0,0,1,0-1.12,1.49,1.49,0,0,1,.8-.78,1.31,1.31,0,0,1,1.09.07c.8.38,1.61.8,2.43,1.27s1.63,1,2.43,1.55l1.44,1c.49.35,1,.71,1.44,1.09a1.4,1.4,0,0,1,.49.95,1.28,1.28,0,0,1-.28,1,1.38,1.38,0,0,1-.53.43,1.53,1.53,0,0,1-.6.14A1.9,1.9,0,0,1,23.6,39.8ZM31.51,32a1.07,1.07,0,0,1-.49-.39c-.38-.47-.73-.92-1.06-1.37s-.66-.9-1-1.37c-.61-.89-1.18-1.78-1.69-2.67A27,27,0,0,1,26,23.62a1.37,1.37,0,0,1-.07-1.12,1.49,1.49,0,0,1,.78-.84,1.47,1.47,0,0,1,1.09,0,1.5,1.5,0,0,1,.8.77,25.089,25.089,0,0,0,1.2,2.36,27.639,27.639,0,0,0,1.62,2.49c.28.42.57.84.88,1.27s.62.84.94,1.26a1.37,1.37,0,0,1,.36,1.09,1.31,1.31,0,0,1-.57,1,1.38,1.38,0,0,1-.42.21,1.23,1.23,0,0,1-.42.07A1.74,1.74,0,0,1,31.51,32ZM70.32,43.45h-.14A33.389,33.389,0,0,1,66.24,42,4.68,4.68,0,0,1,63,37.9a8.67,8.67,0,0,0-.53-2.74,6.52,6.52,0,0,0-1.37-1.83,12.48,12.48,0,0,0-1.41-1.09c-.51-.35-1-.67-1.47-1L57.77,31a4.6,4.6,0,0,0-.53-.31c-.28,0-.57.08-.88.1a8.771,8.771,0,0,1-.88,0,10.41,10.41,0,0,1-4-.78A9.65,9.65,0,0,1,48.1,27.7a10.18,10.18,0,0,1-1.72-2.28,9.21,9.21,0,0,1-1-2.71,3.11,3.11,0,0,1-.07-1.16,5.15,5.15,0,0,1,.14-.95c.05-.28.08-.41.1-.53a.24.24,0,0,0,0-.24,7.32,7.32,0,0,0-1.13-1.2c-.6-.56-1.1-1-1.47-1.33a.86.86,0,0,0-.18-.14.51.51,0,0,1-.17-.21,7.62,7.62,0,0,1-.85.35,1.85,1.85,0,0,1-.84.07,1.3,1.3,0,0,1-.7-.35l-3.59-3.45a1.47,1.47,0,0,1-.39-.7,1.21,1.21,0,0,1,0-.78c0-.09.2-.46.46-1.12A5.48,5.48,0,0,1,38,9.07l7.73-7.73A3.5,3.5,0,0,1,47.5.21,7.34,7.34,0,0,1,48.87,0h.29l.42.14a1,1,0,0,1,.35.21l2.18,1.76.07.07a7.52,7.52,0,0,1,1.19,1.44,1.85,1.85,0,0,1,.29,1.16.87.87,0,0,1,0,.25.88.88,0,0,0,0,.24l-1,2.18A3.73,3.73,0,0,0,53.37,9c.47.64.85,1,1.13,1a5.65,5.65,0,0,0,.7.11h.71l1.23.15a7.1,7.1,0,0,1,1.37.28,13.63,13.63,0,0,1,2.18,1,12.22,12.22,0,0,1,2,1.48,10.61,10.61,0,0,1,2.56,4.39,10.46,10.46,0,0,1,.25,5c.14.19.3.4.49.63l.49.64,1,1.3A10.049,10.049,0,0,1,68,26l.28.56.28.56c.42.75.83,1.55,1.23,2.39a32.14,32.14,0,0,1,1.37,3.59A18.3,18.3,0,0,1,72,39c-.05,2-.1,3.1-.14,3.2a1.29,1.29,0,0,1-.14.56.92.92,0,0,1-.43.42,1.38,1.38,0,0,1-.42.21,1.23,1.23,0,0,1-.42.07ZM56.12,70.24a6.8,6.8,0,0,1-2.82-.6A7.76,7.76,0,0,1,50.91,68q-2.46-2.59-4.46-4.64C45.11,62,43.64,60.45,42,58.71s-3.25-3.44-4.89-5.13a1.39,1.39,0,0,1-.42-1,1.29,1.29,0,0,1,.49-1,1.35,1.35,0,0,1,1-.42,1.25,1.25,0,0,1,1,.49q2.46,2.53,4.92,5.1l4.43,4.64L53,66a4.58,4.58,0,0,0,1.44,1,4.38,4.38,0,0,0,1.73.35h.07a4.52,4.52,0,0,0,1.6-.35,4,4,0,0,0,1.44-1,4.16,4.16,0,0,0,.95-1.44,4.69,4.69,0,0,0,.32-1.72,4.43,4.43,0,0,0-.36-1.76,4,4,0,0,0-1-1.47l-5-4.93-5-4.85-5.35-5.2a1.434,1.434,0,0,1,.95-2.48,1.29,1.29,0,0,1,1,.39c1.73,1.73,3.52,3.49,5.34,5.27s3.5,3.4,5,4.85l5.06,4.93a7.46,7.46,0,0,1,1.62,2.42,7.58,7.58,0,0,1,.56,2.85,6.55,6.55,0,0,1-.49,2.81,7.55,7.55,0,0,1-1.62,2.39A7.36,7.36,0,0,1,59,69.68a7,7,0,0,1-2.77.56Zm2-42.47a1.12,1.12,0,0,1,.46.28,2.12,2.12,0,0,0,.49.36,6,6,0,0,1,.7.49,15.22,15.22,0,0,1,1.62,1,16.93,16.93,0,0,1,1.69,1.37,8.41,8.41,0,0,1,2,2.71,12.08,12.08,0,0,1,.81,3.69c0,.42.34.85,1,1.3a10.57,10.57,0,0,0,2.21,1.09,20,20,0,0,0-.07-2.92,14.35,14.35,0,0,0-.63-3.27,31.8,31.8,0,0,0-1.23-3.23c-.35-.75-.71-1.5-1.09-2.25a3.51,3.51,0,0,1-.35-.57c-.1-.18-.19-.37-.28-.56a5.921,5.921,0,0,0-.53-.74l-.74-1-1-1.19a3.11,3.11,0,0,1-.52-.92,1,1,0,0,1-.18-.49,1.11,1.11,0,0,1,0-.49,7.69,7.69,0,0,0,0-3.9,7.91,7.91,0,0,0-1.93-3.41A7.09,7.09,0,0,0,59.21,14a8.16,8.16,0,0,0-1.62-.74,5.79,5.79,0,0,0-.91-.21,6.59,6.59,0,0,0-1-.07,6,6,0,0,1-.84-.07L54,12.8a4.58,4.58,0,0,1-2.89-2.08,6.24,6.24,0,0,1-1.33-3.13V6.82a.28.28,0,0,1,.07-.21l.77-1.83a.81.81,0,0,0-.17-.24l-.25-.25L48.59,2.88l-.45.18a.77.77,0,0,0-.39.32L40,11.11a3.46,3.46,0,0,0-.46.53,1.56,1.56,0,0,0-.25.52l2.18,2.11.35-.14.43-.14a1.18,1.18,0,0,1,.84-.1,1.54,1.54,0,0,1,.7.38,4.58,4.58,0,0,1,.46.39c.16.17.34.34.53.53a27.394,27.394,0,0,1,2.18,2,5.37,5.37,0,0,1,1.12,1.47,2.79,2.79,0,0,1,.28,1.48,5.732,5.732,0,0,1-.14,1.12,4.39,4.39,0,0,0-.1.5,1.63,1.63,0,0,0,0,.35A10.94,10.94,0,0,0,48.87,24a6.84,6.84,0,0,0,1.27,1.72,7.1,7.1,0,0,0,2.43,1.62,7.47,7.47,0,0,0,2.91.56h.88a3.2,3.2,0,0,0,.88-.18h.35a2.19,2.19,0,0,1,.53.05Z"/>
    </g>
  </g>
</svg>
