<svg xmlns="http://www.w3.org/2000/svg" width="65.16" height="72.002" viewBox="0 0 65.16 72.002">
  <g id="Слой_2" data-name="Слой 2" transform="translate(0 0.001)">
    <g id="Слой_1" data-name="Слой 1">
      <path id="Контур_28" data-name="Контур 28" d="M3.23,21A3.18,3.18,0,0,1,2,20.71,4.4,4.4,0,0,1,.91,20a3,3,0,0,1-.66-1A3.11,3.11,0,0,1,0,17.79V3.16A2.82,2.82,0,0,1,.25,2,4.07,4.07,0,0,1,.91.91,4.07,4.07,0,0,1,2,.25,3,3,0,0,1,3.23,0H53.72A3.09,3.09,0,0,1,56,.91a3.05,3.05,0,0,1,.91,2.25V17.79A3.11,3.11,0,0,1,53.72,21ZM4,36.81A5.16,5.16,0,0,1,2.39,33q0-1.83,1.9-5.28t2.39-4.29a1.39,1.39,0,0,1,.53-.52,1.32,1.32,0,0,1,1.33,0,1.39,1.39,0,0,1,.53.52q.55.86,2.43,4.29A12.58,12.58,0,0,1,13.36,33a5.16,5.16,0,0,1-1.62,3.83,5.36,5.36,0,0,1-3.86,1.58A5.35,5.35,0,0,1,4,36.81Zm-1-34-.14.1a.77.77,0,0,0-.07.28v14.6a.72.72,0,0,0,.07.28,1.1,1.1,0,0,0,.14.11.58.58,0,0,0,.21,0H53.72a.46.46,0,0,0,.28-.1.39.39,0,0,0,.14-.32V3.16A.44.44,0,0,0,54,2.88a.42.42,0,0,0-.28-.14H3.23A.41.41,0,0,0,3,2.78ZM6,30.55A7.63,7.63,0,0,0,5.2,33a2.675,2.675,0,1,0,5.35,0,7.84,7.84,0,0,0-.78-2.43,33.161,33.161,0,0,0-1.89-3.69C7.17,28.12,6.55,29.36,6,30.55ZM16.88,14.8a5.33,5.33,0,0,1-2-3.13c-.19.05-.37.08-.53.11a4.45,4.45,0,0,1-.53,0,4.34,4.34,0,0,1-3.13-1.26,4.16,4.16,0,0,1-1.3-3.1V2a1.24,1.24,0,0,1,.45-1,1.44,1.44,0,0,1,2,0,1.24,1.24,0,0,1,.42,1V7.45a1.51,1.51,0,0,0,.5,1.16,1.57,1.57,0,0,0,1.12.46,1.67,1.67,0,0,0,.67-.14,1.93,1.93,0,0,0,.6-.42,1.42,1.42,0,0,1,.7-.39,1.18,1.18,0,0,1,.77,0,1.2,1.2,0,0,1,.67.49,1.27,1.27,0,0,1,.25.77v1.06a2.72,2.72,0,0,0,.84,2,2.87,2.87,0,0,0,2.11.84,2.78,2.78,0,0,0,2-.84,2.72,2.72,0,0,0,.84-2V8.3a1.32,1.32,0,0,1,.25-.78A1.77,1.77,0,0,1,24.26,7a1.34,1.34,0,0,1,.84,0,1.87,1.87,0,0,1,.7.42,1.87,1.87,0,0,0,.64.53,1.65,1.65,0,0,0,.77.18,1.78,1.78,0,0,0,1.37-.57,1.88,1.88,0,0,0,.53-1.33V1.48a1.35,1.35,0,0,1,.42-1,1.37,1.37,0,0,1,2,0,1.35,1.35,0,0,1,.42,1V6.19a4.5,4.5,0,0,1-1.37,3.27,4.56,4.56,0,0,1-3.34,1.37,3.43,3.43,0,0,1-.56,0,5,5,0,0,1-.56-.1,5.25,5.25,0,0,1-1.73,3.79A5.48,5.48,0,0,1,20.46,16a5.58,5.58,0,0,1-3.58-1.2ZM20.39,72a1.28,1.28,0,0,1-.95-.39,1.36,1.36,0,0,1-.39-1V46.2a.77.77,0,0,1,.07-.29l4.36-10.19a1.36,1.36,0,0,1,.5-.6,1.32,1.32,0,0,1,.77-.24h4.64a1.32,1.32,0,0,1,.77.24,1.91,1.91,0,0,1,.57.6L35,45.91a1.66,1.66,0,0,1,.1.29,1.26,1.26,0,0,1,0,.28V70.59a1.65,1.65,0,0,1-.11.57.85.85,0,0,1-.32.42,1.45,1.45,0,0,1-.45.31,1.36,1.36,0,0,1-.53.11Zm12-2.74V46.76l-3.86-9.14H25.66L21.8,46.76v22.5Zm-4.92-33.4a1.35,1.35,0,0,1-.42-1V30.8A3,3,0,0,1,28,28.55a3.16,3.16,0,0,1,2.28-.92L62,27.7a.48.48,0,0,0,.28-.1.39.39,0,0,0,.14-.32V12.8a.39.39,0,0,0-.14-.32.48.48,0,0,0-.28-.1H56.74a1.26,1.26,0,0,1-1-.43,1.39,1.39,0,0,1-.38-1,1.27,1.27,0,0,1,.38-1,1.3,1.3,0,0,1,1-.39H62a3.12,3.12,0,0,1,3.16,3.17V27.28A3.12,3.12,0,0,1,62,30.45l-31.72-.07a.41.41,0,0,0-.31.1.44.44,0,0,0-.11.32v4.08a1.39,1.39,0,0,1-2.39,1Z" fill="#3e3e3b"/>
    </g>
  </g>
</svg>
