<svg xmlns="http://www.w3.org/2000/svg" width="72.003" height="72.001" viewBox="0 0 72.003 72.001">
  <g id="Слой_2" data-name="Слой 2" transform="translate(0.002 0.001)">
    <g id="Слой_1" data-name="Слой 1">
      <path id="Контур_30" data-name="Контур 30" d="M9.77,52.88A9.33,9.33,0,0,1,2.85,50,9.53,9.53,0,0,1,0,43V33a1.41,1.41,0,0,1,.39-1,1.22,1.22,0,0,1,1-.42h24a1.24,1.24,0,0,1,1,.42,1.41,1.41,0,0,1,.39,1V43a9.53,9.53,0,0,1-2.85,7A9.26,9.26,0,0,1,17,52.88ZM2.67,43a6.82,6.82,0,0,0,2.08,5,6.83,6.83,0,0,0,5,2.07H17A6.75,6.75,0,0,0,21.95,48,6.86,6.86,0,0,0,24,43V34.38H2.67ZM8,33.43a1.2,1.2,0,0,1-.43-1V25a1.16,1.16,0,0,0-.28-.81,1.074,1.074,0,0,0-1.51,0,1.1,1.1,0,0,0-.32.81v7.45a1.31,1.31,0,0,1-1.33,1.34,1.28,1.28,0,0,1-1-.39,1.27,1.27,0,0,1-.39-1V25A3.67,3.67,0,0,1,3.9,22.32a3.63,3.63,0,0,1,2.64-1.09,3.73,3.73,0,0,1,2.67,1.09A3.63,3.63,0,0,1,10.34,25v7.45a1.2,1.2,0,0,1-.43,1,1.31,1.31,0,0,1-.91.39A1.38,1.38,0,0,1,8,33.43ZM21,70.77a15.41,15.41,0,0,1-4.88-3.34,16,16,0,0,1-3.31-5,15.16,15.16,0,0,1-1.23-6.08V51.68a1.4,1.4,0,0,1,.39-1,1.2,1.2,0,0,1,.95-.43,1.32,1.32,0,0,1,1,.43,1.35,1.35,0,0,1,.42,1v4.71A12.46,12.46,0,0,0,18,65.5a12.22,12.22,0,0,0,9,3.76,12.16,12.16,0,0,0,8.93-3.76,12.5,12.5,0,0,0,3.73-9.11,1.25,1.25,0,0,1,.42-1,1.4,1.4,0,0,1,1-.39,1.28,1.28,0,0,1,.95.39,1.3,1.3,0,0,1,.39,1,15.16,15.16,0,0,1-1.23,6.08,16,16,0,0,1-3.31,5A15.41,15.41,0,0,1,33,70.77,14.78,14.78,0,0,1,27,72a14.94,14.94,0,0,1-6-1.23Zm.6-37.34a1.27,1.27,0,0,1-.39-1V25a1.09,1.09,0,0,0-.31-.81,1,1,0,0,0-1.48,0,1.1,1.1,0,0,0-.32.81v7.45a1.31,1.31,0,0,1-1.33,1.34,1.334,1.334,0,0,1-1.34-1.39V25a3.71,3.71,0,0,1,1.09-2.71,3.63,3.63,0,0,1,2.64-1.09,3.73,3.73,0,0,1,2.67,1.09A3.63,3.63,0,0,1,23.91,25v7.45a1.2,1.2,0,0,1-.43,1,1.4,1.4,0,0,1-1,.39,1.28,1.28,0,0,1-.93-.41ZM29.88,48.3a1.25,1.25,0,0,1-.95-.42,1.44,1.44,0,0,1-.38-1,1.315,1.315,0,0,1,1.33-1.34H67.71A1.56,1.56,0,0,0,69.33,44V4.36a1.54,1.54,0,0,0-.46-1.16,1.58,1.58,0,0,0-1.16-.46H21.59a1.49,1.49,0,0,0-1.09.46A1.54,1.54,0,0,0,20,4.36V18a1.38,1.38,0,0,1-.39,1,1.28,1.28,0,0,1-.95.39,1.315,1.315,0,0,1-1.33-1.34V4.36A4.25,4.25,0,0,1,18.6,1.27,4,4,0,0,1,21.6,0H67.71a4.1,4.1,0,0,1,3,1.27A4.17,4.17,0,0,1,72,4.36V44a4.17,4.17,0,0,1-1.27,3,4.12,4.12,0,0,1-3,1.26Zm7.77-7.38A17.48,17.48,0,0,1,32,37a19.25,19.25,0,0,1-3.87-5.8,18.15,18.15,0,0,1,0-14.17A18.77,18.77,0,0,1,32,11.25a18.12,18.12,0,0,1,5.69-3.9,17.71,17.71,0,0,1,14,0,18.82,18.82,0,0,1,5.74,3.9A18.27,18.27,0,0,1,62.7,24.12a17.89,17.89,0,0,1-1.41,7.1A18.51,18.51,0,0,1,57.38,37a17.9,17.9,0,0,1-19.74,3.9Zm1.06-31a15.577,15.577,0,0,0,0,28.53,14.49,14.49,0,0,0,5.94,1.23,14.7,14.7,0,0,0,6-1.23,15.5,15.5,0,0,0,4.89-3.34,15.84,15.84,0,0,0,3.27-4.93,15.567,15.567,0,0,0-3.27-16.92,15.34,15.34,0,0,0-4.89-3.34,14.7,14.7,0,0,0-6-1.23,14.49,14.49,0,0,0-5.94,1.19Zm-4,17.44a4.44,4.44,0,0,1-1.26-3.2,4.371,4.371,0,1,1,8.74-.03,4.41,4.41,0,0,1-1.27,3.2,4.33,4.33,0,0,1-6.19,0Zm1.9-4.4a1.63,1.63,0,0,0-.49,1.2,1.73,1.73,0,0,0,.49,1.23,1.59,1.59,0,0,0,1.2.53A1.57,1.57,0,0,0,39,25.35a1.74,1.74,0,0,0,.5-1.23,1.64,1.64,0,0,0-.5-1.2,1.61,1.61,0,0,0-1.19-.49,1.63,1.63,0,0,0-1.18.49Zm11.78,4.4a4.35,4.35,0,0,1-1.3-3.2,4.44,4.44,0,0,1,4.43-4.43A4.18,4.18,0,0,1,54.6,21a4.3,4.3,0,0,1,1.3,3.13,4.39,4.39,0,0,1-1.3,3.2,4.22,4.22,0,0,1-3.06,1.3,4.3,4.3,0,0,1-3.13-1.31Zm1.93-4.4a1.67,1.67,0,0,0-.49,1.2,1.77,1.77,0,0,0,.49,1.23,1.59,1.59,0,0,0,1.2.53,1.56,1.56,0,0,0,1.19-.53,1.74,1.74,0,0,0,.5-1.23,1.64,1.64,0,0,0-.5-1.2,1.59,1.59,0,0,0-1.19-.49,1.63,1.63,0,0,0-1.18.45Z" fill="#3e3e3b"/>
    </g>
  </g>
</svg>
