<svg xmlns="http://www.w3.org/2000/svg" width="68.733" height="63.802" viewBox="0 0 68.733 63.802">
  <g id="Слой_2" data-name="Слой 2" transform="translate(0.003 -0.048)">
    <g id="Слой_1" data-name="Слой 1">
      <path id="Контур_31" data-name="Контур 31" d="M2,63.84a1.9,1.9,0,0,1-1.4-.59A2.07,2.07,0,0,1,0,61.73V5.62A2,2,0,0,1,.6,4.18,1.9,1.9,0,0,1,2,3.59H26.58A2.031,2.031,0,0,1,28.6,5.62V61.73a2.07,2.07,0,0,1-.6,1.52,2,2,0,0,1-1.44.59ZM1.27,12a1.23,1.23,0,0,1-.88-.35A1.17,1.17,0,0,1,0,10.69a1.21,1.21,0,0,1,.39-.88,1.19,1.19,0,0,1,.88-.39H7.1a1.19,1.19,0,0,1,.9.39,1.29,1.29,0,0,1,.35.88A1.28,1.28,0,0,1,7.1,12Zm0,6.75a1.22,1.22,0,0,1-.88-.38A1.21,1.21,0,0,1,0,17.44a1.19,1.19,0,0,1,.39-.92,1.27,1.27,0,0,1,.88-.35h9.28a1.273,1.273,0,0,1,.91,2.15,1.19,1.19,0,0,1-.91.38Zm0,6.68A1.23,1.23,0,0,1,.39,25,1.17,1.17,0,0,1,0,24.12a1.12,1.12,0,0,1,.39-.85,1.27,1.27,0,0,1,.88-.35H7.1a1.27,1.27,0,0,1,.92.35,1.19,1.19,0,0,1,.35.85,1.231,1.231,0,0,1-1.29,1.23Zm0,6.75a1.23,1.23,0,0,1-.88-.35A1.17,1.17,0,0,1,0,30.87,1.21,1.21,0,0,1,.39,30a1.19,1.19,0,0,1,.88-.39H7.1A1.19,1.19,0,0,1,8,30a1.29,1.29,0,0,1,.35.88,1.2,1.2,0,0,1-1.27,1.26Zm0,6.75a1.22,1.22,0,0,1-.88-.38A1.21,1.21,0,0,1,0,37.62a1.19,1.19,0,0,1,.39-.92,1.27,1.27,0,0,1,.88-.35H7.1a1.2,1.2,0,0,1,1.27,1.27A1.29,1.29,0,0,1,8,38.5a1.21,1.21,0,0,1-.92.38Zm0,6.68a1.23,1.23,0,0,1-.88-.35A1.17,1.17,0,0,1,0,44.3a1.21,1.21,0,0,1,.39-.88A1.19,1.19,0,0,1,1.27,43H7.1a1.19,1.19,0,0,1,.92.39,1.29,1.29,0,0,1,.35.88A1.2,1.2,0,0,1,7.1,45.53ZM1.41,59a1.23,1.23,0,0,1-.88-.35,1.17,1.17,0,0,1-.39-.91,1.21,1.21,0,0,1,.39-.88,1.19,1.19,0,0,1,.88-.39H7.1a1.19,1.19,0,0,1,.92.39,1.29,1.29,0,0,1,.35.88A1.2,1.2,0,0,1,7.1,59Zm.14-6.68a1.21,1.21,0,0,1-.92-.38,1.29,1.29,0,0,1-.35-.88,1.27,1.27,0,0,1,.35-.92,1.27,1.27,0,0,1,.92-.35h9a1.273,1.273,0,0,1,.91,2.15,1.19,1.19,0,0,1-.91.38Zm24.54,9V6.12H2.53V61.31ZM16.24,12.8a2.18,2.18,0,1,1,.35-2.63A2.18,2.18,0,0,1,16.24,12.8ZM40.82,62.72a1.16,1.16,0,0,1-.46-.63c0-.14-.52-1.67-1.41-4.57A17.8,17.8,0,0,1,38,50.06a35.69,35.69,0,0,1,1.44-5.48q1.31-4.15,2.92-9.11t3.2-9.7c1-3.16,1.86-5.57,2.42-7.21a1.08,1.08,0,0,1,.64-.7,1.44,1.44,0,0,1,1-.07,1.28,1.28,0,0,1,.7.67,1.3,1.3,0,0,1,.07.95c-1.08,3.18-2.19,6.47-3.34,9.84S44.88,35.77,44,38.67s-1.73,5.43-2.36,7.56a28.25,28.25,0,0,0-1,4.11,10.48,10.48,0,0,0,.14,3.34c.24,1.29.52,2.55.84,3.77l11.25-36a1.52,1.52,0,0,1,.67-.74,1.22,1.22,0,0,1,1-.11,1.19,1.19,0,0,1,.74.63,1.15,1.15,0,0,1,0,1L42.75,62.09a1.38,1.38,0,0,1-.46.59,1.12,1.12,0,0,1-.74.25,1.28,1.28,0,0,1-.73-.21ZM54.14,22.43a6.69,6.69,0,0,1-4.57-11.5A6.43,6.43,0,0,1,54.21,9h.14A6.28,6.28,0,0,1,59,11a6.7,6.7,0,0,1,2,4.82,6.59,6.59,0,0,1-2,4.68,6.47,6.47,0,0,1-4.71,1.93Zm-2.85-9.7a3.85,3.85,0,0,0-1.23,2.88,4.23,4.23,0,0,0,1.2,3,3.87,3.87,0,0,0,3,1.27,3.94,3.94,0,0,0,2.95-1.23,4.32,4.32,0,0,0,1.27-2.92,4.13,4.13,0,0,0-1.2-3,3.94,3.94,0,0,0-2.95-1.23h-.07a4.05,4.05,0,0,0-2.97,1.23Zm4.5-2a1.22,1.22,0,0,1-.38-.88l.14-6.18a1.12,1.12,0,0,0-.35-.78,1.12,1.12,0,0,0-.78-.35A1.08,1.08,0,0,0,53.3,3.66l-.07,6.11a1.53,1.53,0,0,1-.43.92,1.23,1.23,0,0,1-.91.35,1.08,1.08,0,0,1-.84-.39,1.23,1.23,0,0,1-.35-.88l.07-6.18a3.41,3.41,0,0,1,1.09-2.54,3.56,3.56,0,0,1,2.56-1A3.493,3.493,0,0,1,58,3.73l-.07,6.11a1.27,1.27,0,0,1-.35.88,1.19,1.19,0,0,1-.92.39,1.21,1.21,0,0,1-.87-.39Zm-.28,6.33a2,2,0,0,1-1.44.6,1.87,1.87,0,0,1-1.41-.6,2.05,2.05,0,0,1-.56-1.44,1.91,1.91,0,0,1,2-2,2.05,2.05,0,0,1,1.44.56,1.87,1.87,0,0,1,.6,1.41,2,2,0,0,1-.63,1.46Zm9,46.79a1.58,1.58,0,0,1-.74-.31,1.07,1.07,0,0,1-.39-.67L53.09,22.71a1.11,1.11,0,0,1,.14-.95,1.32,1.32,0,0,1,.77-.6,1.19,1.19,0,0,1,1,.14,1.37,1.37,0,0,1,.6.78l9.28,36.28c.23-.7.46-1.43.67-2.18s.38-1.5.52-2.25a11.58,11.58,0,0,0,.18-1.41c0-.42,0-.79,0-1.12-.09-.66-.38-2-.87-4.15s-1.14-4.63-1.94-7.56-1.67-6.12-2.63-9.56-1.94-6.88-2.92-10.3a1.11,1.11,0,0,1,.14-.95,1.28,1.28,0,0,1,.77-.6,1.22,1.22,0,0,1,.95.11,1.18,1.18,0,0,1,.6.73q.91,3.24,2.28,8.16t2.71,9.81Q66.66,42,67.64,46a36.82,36.82,0,0,1,1.06,5.24,8.62,8.62,0,0,1,0,1.44,11.1,11.1,0,0,1-.22,1.72,29.29,29.29,0,0,1-1.54,5.8c-.71,1.8-1.08,2.8-1.13,2.87a1.13,1.13,0,0,1-.45.56,1.33,1.33,0,0,1-.74.21Z" fill="#3e3e3b"/>
    </g>
  </g>
</svg>
