<svg xmlns="http://www.w3.org/2000/svg" viewBox="0 0 496 496"><defs><style>.cls-1{fill:#3e3e3b;}</style></defs><g id="Слой_2" data-name="Слой 2"><g id="Layer_3" data-name="Layer 3"><path class="cls-1" d="M493.65,242.34l-240-240a8,8,0,0,0-11.31,0l-240,240A8,8,0,0,0,8,256H48V448H40a8,8,0,0,0-8,8v32a8,8,0,0,0,8,8H456a8,8,0,0,0,8-8V456a8,8,0,0,0-8-8h-8V256h40a8,8,0,0,0,5.65-13.66ZM448,480H48V464H448ZM64,448V251.31l184-184,184,184V448ZM443.31,240,253.65,50.34a8,8,0,0,0-11.31,0L52.69,240H27.31L248,19.31,468.69,240Z"/><path class="cls-1" d="M320,304H280V280a8,8,0,0,0-8-8H224a8,8,0,0,0-8,8v24H176a24,24,0,0,0-24,24v32a8,8,0,0,0,8,8h8v56a8,8,0,0,0,8,8H320a8,8,0,0,0,8-8V368h8a8,8,0,0,0,8-8V328A24,24,0,0,0,320,304Zm-88-16h32v16H232Zm80,128H184V368h40v24a8,8,0,0,0,8,8h32a8,8,0,0,0,8-8V368h40Zm-72-48h16v16H240Zm88-16H168V328a8,8,0,0,1,8-8H320a8,8,0,0,1,8,8Z"/><path class="cls-1" d="M360,240H331.37a8,8,0,0,1,0-16H360a8,8,0,0,0,7.33-11.2,47.94,47.94,0,0,0-85.48-4.8H217.53a47.94,47.94,0,0,0-85.48,4.8,8,8,0,0,0,7.32,11.2H168a8,8,0,0,1,0,16H139.37a8,8,0,0,0-7.32,11.2,47.94,47.94,0,0,0,85.48,4.8h64.32a47.94,47.94,0,0,0,85.48-4.8A8,8,0,0,0,360,240Zm-36.63,24a32,32,0,0,1-29.29-19.2,8,8,0,0,0-7.33-4.8H212.62a8,8,0,0,0-7.33,4.8,31.95,31.95,0,0,1-50.4,11.2H168a24,24,0,0,0,0-48H154.87a31.91,31.91,0,0,1,50.4,11.2,8,8,0,0,0,7.33,4.8h74.13a8,8,0,0,0,7.32-4.8,31.94,31.94,0,0,1,42-16.54,31.59,31.59,0,0,1,8.38,5.34H331.33a24,24,0,1,0,0,48h13.12A31.89,31.89,0,0,1,323.37,264Z"/></g></g></svg>