<svg xmlns="http://www.w3.org/2000/svg" width="17.237" height="14" viewBox="0 0 17.237 14">
  <path id="twitter" d="M15.466,51.571c.011.153.011.306.011.459A9.983,9.983,0,0,1,5.425,62.082,9.983,9.983,0,0,1,0,60.5a7.309,7.309,0,0,0,.853.044A7.075,7.075,0,0,0,5.239,59.03a3.539,3.539,0,0,1-3.3-2.45,4.455,4.455,0,0,0,.667.055,3.736,3.736,0,0,0,.93-.12A3.533,3.533,0,0,1,.7,53.048V53a3.558,3.558,0,0,0,1.6.448A3.538,3.538,0,0,1,1.2,48.727a10.042,10.042,0,0,0,7.284,3.7,3.988,3.988,0,0,1-.088-.809A3.536,3.536,0,0,1,14.514,49.2a6.955,6.955,0,0,0,2.242-.853A3.523,3.523,0,0,1,15.2,50.291a7.082,7.082,0,0,0,2.034-.547A7.594,7.594,0,0,1,15.466,51.571Z" transform="translate(0 -48.082)" fill="#fff7e7"/>
</svg>
