<?xml version="1.0" encoding="utf-8"?>
<!-- Generator: Adobe Illustrator 24.1.0, SVG Export Plug-In . SVG Version: 6.00 Build 0)  -->
<svg version="1.1" id="Слой_1" xmlns="http://www.w3.org/2000/svg" xmlns:xlink="http://www.w3.org/1999/xlink" x="0px" y="0px"
	 viewBox="0 0 512 512" style="enable-background:new 0 0 512 512;" xml:space="preserve">
<style type="text/css">
	.st0{fill:#FFFFFF;}
</style>
<path class="st0" d="M444,49.9c-12.7-11.7-64.1-49-178.7-49.5c0,0-135.1-8.1-200.9,52.3C27.8,89.3,14.9,143,13.5,209.5
	s-3.1,191.1,117,224.9h0.1l-0.1,51.6c0,0-0.8,20.9,13,25.1c16.6,5.2,26.4-10.7,42.3-27.8c8.7-9.4,20.7-23.2,29.8-33.7
	c82.2,6.9,145.3-8.9,152.5-11.2c16.6-5.4,110.5-17.4,125.7-142C509.6,167.8,486.2,86.6,444,49.9z M457.9,287
	c-12.9,104-89,110.6-103,115.1c-6,1.9-61.5,15.7-131.2,11.2c0,0-52,62.7-68.2,79c-5.3,5.3-11.1,4.8-11-5.7c0-6.9,0.4-85.7,0.4-85.7
	c-0.1,0-0.1,0,0,0C43.1,372.7,49.1,266.6,50.2,211.1c1.1-55.5,11.6-101,42.6-131.6c55.7-50.5,170.4-43,170.4-43
	c96.9,0.4,143.3,29.6,154.1,39.4C453,106.5,471.2,179.7,457.9,287L457.9,287z M318.9,206.2c0.4,8.6-12.5,9.2-12.9,0.6
	c-1.1-22-11.4-32.7-32.6-33.9c-8.6-0.5-7.8-13.4,0.7-12.9C302,161.5,317.5,177.5,318.9,206.2z M339.2,217.5
	c1-42.4-25.5-75.6-75.8-79.3c-8.5-0.6-7.6-13.5,0.9-12.9c58,4.2,88.9,44.1,87.8,92.5C352,226.4,339,226,339.2,217.5L339.2,217.5z
	 M386.2,230.9c0.1,8.6-12.9,8.7-12.9,0.1c-0.6-81.5-54.9-125.9-120.8-126.4c-8.5-0.1-8.5-12.9,0-12.9
	C326.2,92.2,385.5,143.1,386.2,230.9z M374.9,329v0.2c-10.8,19-31,40-51.8,33.3l-0.2-0.3c-21.1-5.9-70.8-31.5-102.2-56.5
	c-16.2-12.8-31-27.9-42.4-42.4c-10.3-12.9-20.7-28.2-30.8-46.6c-21.3-38.5-26-55.7-26-55.7c-6.7-20.8,14.2-41,33.3-51.8h0.2
	c9.2-4.8,18-3.2,23.9,3.9c0,0,12.4,14.8,17.7,22.1c5,6.8,11.7,17.7,15.2,23.8c6.1,10.9,2.3,22-3.7,26.6l-12,9.6
	c-6.1,4.9-5.3,14-5.3,14s17.8,67.3,84.3,84.3c0,0,9.1,0.8,14-5.3l9.6-12c4.6-6,15.7-9.8,26.6-3.7c14.7,8.3,33.4,21.2,45.8,32.9
	C378.1,311.1,379.7,319.8,374.9,329L374.9,329z"/>
</svg>
